<svg width="120" height="60" xmlns="http://www.w3.org/2000/svg">
 <!-- Created with Method Draw - http://github.com/duopixel/Method-Draw/ -->

 <g>
  <title>background</title>
  <rect fill="none" id="canvas_background" height="11.022556" width="20.045113" y="-1" x="-1"/>
 </g>
 <g>
  <title>Layer 1</title>
  <text style="cursor: move;" font-weight="bold" stroke-width="0" stroke="null" xml:space="preserve" text-anchor="start" font-family="'Courier New', Courier, monospace" font-size="24" id="svg_2" y="29.134323" x="22.318157" fill="#ff0000" transform="matrix(2.7206571263503627,0,0,3.08734610877345,-42.95747928490765,-35.30201581719326) ">1</text>

  <metadata transform="matrix(0.003786982255574514,0,0,0.003786982255574514,-26.260828428241982,-34.622485241214555) " id="svg_9">image/svg+xmlAnglo-American card suitsJeff BonhamAnglo-American card suits: clubs, diamonds, hearts and spades.  Created in Inkscape.anglo-americancardsclubclubsdiamonddiamondsheartheartsspadespadeshttp://commons.wikimedia.org/wiki/Image:Anglo-American_card_suits.svg</metadata>

  <metadata transform="matrix(0.05078378099244162,0,0,0.05078378099244162,-11.597726759093359,-146.35226624570194) " id="svg_19">image/svg+xmlAnglo-American card suitsJeff BonhamAnglo-American card suits: clubs, diamonds, hearts and spades.  Created in Inkscape.anglo-americancardsclubclubsdiamonddiamondsheartheartsspadespadeshttp://commons.wikimedia.org/wiki/Image:Anglo-American_card_suits.svg</metadata>
  <g stroke="null" id="svg_22">
   <g stroke="null" transform="matrix(0.12987167221055138,0,0,0.12987167221055138,-110.11992662036016,-405.32248995225535) " id="svg_21">
    <path stroke="null" fill="#ff0000" d="m1453.849359,3540.144004c-0.3432,-0.61825 -1.81867,-5.08821 -3.27883,-9.93328c-9.25379,-30.70592 -26.43241,-61.79909 -55.20025,-99.91211c-10.80803,-14.31897 -20.98108,-26.99864 -48.4894,-60.43711c-31.851287,-38.71762 -40.974863,-51.12075 -50.187823,-68.22815c-5.440463,-10.10228 -11.078445,-25.47363 -12.933787,-35.26259c-1.854284,-9.78328 -1.884514,-25.76677 -0.06449,-34.08951c7.403277,-33.85415 37.474711,-59.39471 73.43295,-62.36878c41.19287,-3.40701 76.23264,17.40237 94.64341,56.20672l4.11116,8.66507l3.09417,-6.84536c4.59763,-10.17145 9.02537,-17.05079 16.49892,-25.63414c19.02798,-21.85364 41.67355,-32.55863 68.95442,-32.59608c12.21998,-0.01675 19.2223,0.99749 29.63542,4.29255c15.57394,4.92811 27.29757,12.6053 37.73867,24.71314c27.20989,31.55337 23.98818,74.53993 -9.53244,127.1876c-7.81932,12.2811 -21.92763,30.452 -41.32995,53.23123c-22.34309,26.23184 -33.26023,39.56342 -44.43732,54.26515c-26.79149,35.24004 -44.8099,67.26021 -54.72093,97.24342c-1.51191,4.57392 -3.09592,8.83598 -3.52003,9.47125c-0.98487,1.47524 -3.60189,1.49361 -4.41387,0.03098z" id="svg_18"/>
   </g>
  </g>
 </g>
</svg>
