<svg width="120" height="60" xmlns="http://www.w3.org/2000/svg">
 <!-- Created with Method Draw - http://github.com/duopixel/Method-Draw/ -->

 <g>
  <title>background</title>
  <rect fill="none" id="canvas_background" height="11.022556" width="20.045113" y="-1" x="-1"/>
 </g>
 <g>
  <title>Layer 1</title>
  <text style="cursor: move;" font-weight="bold" stroke-width="0" stroke="null" xml:space="preserve" text-anchor="start" font-family="'Courier New', Courier, monospace" font-size="24" id="svg_2" y="29.134323" x="22.318157" fill="#ff0000" transform="matrix(2.7206571263503627,0,0,3.08734610877345,-42.95747928490765,-35.30201581719326) ">3</text>

  <metadata transform="matrix(0.003786982255574514,0,0,0.003786982255574514,-26.260828428241982,-34.622485241214555) " id="svg_9">image/svg+xmlAnglo-American card suitsJeff BonhamAnglo-American card suits: clubs, diamonds, hearts and spades.  Created in Inkscape.anglo-americancardsclubclubsdiamonddiamondsheartheartsspadespadeshttp://commons.wikimedia.org/wiki/Image:Anglo-American_card_suits.svg</metadata>

  <metadata transform="matrix(0.05078378099244162,0,0,0.05078378099244162,-11.597726759093359,-146.35226624570194) " id="svg_19">image/svg+xmlAnglo-American card suitsJeff BonhamAnglo-American card suits: clubs, diamonds, hearts and spades.  Created in Inkscape.anglo-americancardsclubclubsdiamonddiamondsheartheartsspadespadeshttp://commons.wikimedia.org/wiki/Image:Anglo-American_card_suits.svg</metadata>

  <metadata transform="matrix(0.060591965511962664,0,0,0.060591965511962664,-124.23225900648791,-24.539705482763043) " id="svg_29">image/svg+xmlAnglo-American card suitsJeff BonhamAnglo-American card suits: clubs, diamonds, hearts and spades.  Created in Inkscape.anglo-americancardsclubclubsdiamonddiamondsheartheartsspadespadeshttp://commons.wikimedia.org/wiki/Image:Anglo-American_card_suits.svg</metadata>
  <g stroke="null" id="svg_32">
   <g stroke="null" transform="matrix(0.13073767369180694,0,0,0.13073767369180694,-328.4323797620748,-75.19263908289285) " id="svg_31">
    <path fill="#ff0000" fill-rule="evenodd" stroke-width="1.0000000pt" d="m3117.367356,622.86766c-38.6981,64.397217 -82.26246,126.343807 -126.52197,185.839757c46.34505,59.49596 90.60458,121.44253 126.52197,185.83976c37.30777,-65.62253 78.0914,-128.18178 126.52199,-185.83976c-47.04023,-59.49595 -89.90939,-122.66786 -126.52199,-185.839757z" id="svg_28"/>
   </g>
  </g>
 </g>
</svg>
