<svg width="120" height="60" xmlns="http://www.w3.org/2000/svg">
 <!-- Created with Method Draw - http://github.com/duopixel/Method-Draw/ -->

 <g>
  <title>background</title>
  <rect x="-1" y="-1" width="122" height="62" id="canvas_background" fill="none"/>
 </g>
 <g>
  <title>Layer 1</title>
  <text transform="matrix(2.7206571263503627,0,0,3.08734610877345,-42.95747928490765,-35.30201581719326) " fill="#000000" x="22.318157" y="29.134323" id="svg_2" font-size="24" font-family="'Courier New', Courier, monospace" text-anchor="start" xml:space="preserve" stroke="#000" stroke-width="0" font-weight="bold">4</text>
  <metadata id="svg_9">image/svg+xmlAnglo-American card suitsJeff BonhamAnglo-American card suits: clubs, diamonds, hearts and spades.  Created in Inkscape.anglo-americancardsclubclubsdiamonddiamondsheartheartsspadespadeshttp://commons.wikimedia.org/wiki/Image:Anglo-American_card_suits.svg</metadata>

  <metadata transform="matrix(0.0605920902235404,0,0,0.0605920902235404,-16.871068311122084,-24.53973572526849) " id="svg_13">image/svg+xmlAnglo-American card suitsJeff BonhamAnglo-American card suits: clubs, diamonds, hearts and spades.  Created in Inkscape.anglo-americancardsclubclubsdiamonddiamondsheartheartsspadespadeshttp://commons.wikimedia.org/wiki/Image:Anglo-American_card_suits.svg</metadata>
  <g stroke="null" id="svg_16">
   <g stroke="null" transform="matrix(0.128871156551583,0,0,0.128871156551583,-91.79807443449366,-74.27430005316333) " id="svg_15">
    <path stroke="#000000" fill="#000000" fill-rule="nonzero" stroke-width="1.810937" stroke-miterlimit="4" stroke-dashoffset="0" marker-start="none" marker-mid="none" marker-end="none" d="m1294.96242,784.673972c-58.81387,-28.09458 -145.32717,5.41679 -124.85824,81.01208c19.94712,73.66818 106.09049,57.5015 135.87882,12.65836c-12.42728,85.02529 -34.25235,98.26235 -47.33387,116.72006l138.884,0c-14.07177,-19.73903 -39.62371,-31.69477 -54.60839,-117.8853c30.01637,44.76763 120.25299,60.2871 139.91188,-12.31667c19.33868,-71.42099 -67.83356,-112.09436 -125.801,-79.76257c55.58527,-37.32558 75.54727,-159.91353 -29.73107,-159.91353c-106.31757,0 -88.57883,124.98473 -32.34213,159.48757z" id="svg_10"/>
   </g>
  </g>
 </g>
</svg>
