<svg width="120" height="60" xmlns="http://www.w3.org/2000/svg">
 <!-- Created with Method Draw - http://github.com/duopixel/Method-Draw/ -->

 <g>
  <title>background</title>
  <rect fill="none" id="canvas_background" height="11.022556" width="20.045113" y="-1" x="-1"/>
 </g>
 <g>
  <title>Layer 1</title>
  <text xml:space="preserve" text-anchor="start" font-family="Helvetica, Arial, sans-serif" font-size="24" id="svg_1" y="175.5" x="93.5" stroke-width="0" stroke="#000" fill="#000000"></text>
  <text style="cursor: move;" font-weight="bold" stroke-width="0" stroke="#000" xml:space="preserve" text-anchor="start" font-family="'Courier New', Courier, monospace" font-size="24" id="svg_2" y="29.134323" x="22.318157" fill="#000000" transform="matrix(2.7206571263503627,0,0,3.08734610877345,-42.95747928490765,-35.30201581719326) ">6</text>

  <metadata transform="matrix(0.003786982255574514,0,0,0.003786982255574514,-26.260828428241982,-34.622485241214555) " id="svg_9">image/svg+xmlAnglo-American card suitsJeff BonhamAnglo-American card suits: clubs, diamonds, hearts and spades.  Created in Inkscape.anglo-americancardsclubclubsdiamonddiamondsheartheartsspadespadeshttp://commons.wikimedia.org/wiki/Image:Anglo-American_card_suits.svg</metadata>
  <g stroke="null" id="svg_12">
   <g stroke="null" transform="matrix(0.12922197179840164,0,0,0.12922197179840164,-2865.537607393259,-2161.001620556389) " id="svg_11">
    <path stroke="#000000" fill="#000000" fill-rule="evenodd" stroke-width="0.85576210pt" id="svg_8" d="m22681.055273,16899.688111c-122.0804,124.72233 -2.40813,215.19165 94.11395,155.64651c-18.22494,64.96823 -28.24741,70.08028 -39.31195,87.18963l104.21461,0c-13.37742,-17.27709 -27.42618,-22.2214 -41.65996,-86.81983c98.5467,56.60957 202.40988,-42.11352 93.06036,-156.01631c-71.51469,-62.55459 -99.27923,-119.66427 -105.20849,-127.77367c-5.68921,6.75662 -39.20801,66.37968 -105.20852,127.77367z"/>
   </g>
  </g>
 </g>
</svg>
